# xmcd
#
# Track frame offsets:
#	150
#	49402
#	66030
#	93220
#	122275
#	141132
#	166962
#	199190
#	221855
#	245675
#	273545
#	302175
#
# Disc length: 4401 seconds
#
# Revision: 1
# Processed by: cddbd v1.5.2PL0 Copyright (c) Steve Scherf et al.
# Submitted via: EZCDAudioConverter 8.0.2.1
#
DISCID=b4112f0c
DTITLE=Various Artist - Nhạc Tiền Chiến Tuyển Chọn. Giọt Mưa Thu
DYEAR=2008
DGENRE=Miscellaneous
TTITLE0=Đình Văn, Bích Phượng - Hòn vọng phu 1 and 2
TTITLE1=Đình Văn, Bích Phượng - Hòn vọng phu 3
TTITLE2=Lệ Thu - Giọt mưa thu
TTITLE3=Cao Minh - Lá đổ muôn chiều
TTITLE4=Phương Thảo - Lạnh lùng
TTITLE5=Thu Hà - Bóng chiều xưa
TTITLE6=Lan Ngọc - Biệt ly
TTITLE7=Đình Văn - Cô lái đò
TTITLE8=Thùy Dương - Tiếng còi trong sương đêm
TTITLE9=Cao Minh - Thu quyến rũ
TTITLE10=Lan Ngọc - Cô láng giềng
TTITLE11=Ánh Tuyết - Buồn tàn thu
EXTD=
EXTT0=
EXTT1=
EXTT2=
EXTT3=
EXTT4=
EXTT5=
EXTT6=
EXTT7=
EXTT8=
EXTT9=
EXTT10=
EXTT11=
PLAYORDER=
